<mxfile host="Electron" modified="2024-07-20T15:38:16.886Z" agent="Mozilla/5.0 (X11; Linux x86_64) AppleWebKit/537.36 (KHTML, like Gecko) draw.io/24.5.3 Chrome/124.0.6367.207 Electron/30.0.6 Safari/537.36" etag="VlqDyWNJ2X51W3bRJe8j" version="24.5.3" type="device">
  <diagram name="Page-1" id="ANGaDUapU8BfnFOeElr-">
    <mxGraphModel dx="1434" dy="843" grid="0" gridSize="10" guides="0" tooltips="1" connect="1" arrows="1" fold="1" page="1" pageScale="1" pageWidth="850" pageHeight="1100" math="0" shadow="0">
      <root>
        <mxCell id="0" />
        <mxCell id="1" parent="0" />
        <mxCell id="mlCUItzVQPp-q1BWQeOM-6" style="edgeStyle=orthogonalEdgeStyle;rounded=1;orthogonalLoop=1;jettySize=auto;html=1;entryX=0.5;entryY=0;entryDx=0;entryDy=0;" parent="1" source="9k7BWCP6V1K9Fzmg2z8V-1" target="9k7BWCP6V1K9Fzmg2z8V-5" edge="1">
          <mxGeometry relative="1" as="geometry" />
        </mxCell>
        <mxCell id="9k7BWCP6V1K9Fzmg2z8V-1" value="apply mask on the frame" style="rounded=1;whiteSpace=wrap;html=1;fillColor=#dae8fc;strokeColor=#6c8ebf;" parent="1" vertex="1">
          <mxGeometry x="250" y="240" width="120" height="40" as="geometry" />
        </mxCell>
        <mxCell id="9k7BWCP6V1K9Fzmg2z8V-2" value="reject" style="rounded=1;whiteSpace=wrap;html=1;fillColor=#f8cecc;strokeColor=#b85450;" parent="1" vertex="1">
          <mxGeometry x="530" y="435" width="120" height="60" as="geometry" />
        </mxCell>
        <mxCell id="mlCUItzVQPp-q1BWQeOM-7" style="edgeStyle=orthogonalEdgeStyle;rounded=1;orthogonalLoop=1;jettySize=auto;html=1;entryX=0.5;entryY=0;entryDx=0;entryDy=0;" parent="1" source="9k7BWCP6V1K9Fzmg2z8V-5" target="9k7BWCP6V1K9Fzmg2z8V-6" edge="1">
          <mxGeometry relative="1" as="geometry" />
        </mxCell>
        <mxCell id="9k7BWCP6V1K9Fzmg2z8V-5" value="find all the&amp;nbsp; Contours in the frame" style="rounded=1;whiteSpace=wrap;html=1;fillColor=#dae8fc;strokeColor=#6c8ebf;" parent="1" vertex="1">
          <mxGeometry x="250" y="330" width="120" height="60" as="geometry" />
        </mxCell>
        <mxCell id="9k7BWCP6V1K9Fzmg2z8V-6" value="countour area &amp;gt; 200" style="rounded=1;whiteSpace=wrap;html=1;fillColor=#dae8fc;strokeColor=#6c8ebf;" parent="1" vertex="1">
          <mxGeometry x="250" y="435" width="120" height="60" as="geometry" />
        </mxCell>
        <mxCell id="9k7BWCP6V1K9Fzmg2z8V-7" value="find the bounding rectangle, distance and moment(Cx,Cy)" style="rounded=1;whiteSpace=wrap;html=1;fillColor=#dae8fc;strokeColor=#6c8ebf;" parent="1" vertex="1">
          <mxGeometry x="250" y="630" width="120" height="60" as="geometry" />
        </mxCell>
        <mxCell id="9k7BWCP6V1K9Fzmg2z8V-16" value="yes" style="html=1;shadow=0;dashed=0;align=center;verticalAlign=middle;shape=mxgraph.arrows2.arrow;dy=0.6;dx=40;direction=south;notch=0;fillColor=#fff2cc;strokeColor=#d6b656;rounded=1;" parent="1" vertex="1">
          <mxGeometry x="272.5" y="505" width="75" height="110" as="geometry" />
        </mxCell>
        <mxCell id="9k7BWCP6V1K9Fzmg2z8V-20" value="no" style="html=1;shadow=0;dashed=0;align=center;verticalAlign=middle;shape=mxgraph.arrows2.arrow;dy=0.6;dx=40;notch=0;fillColor=#fff2cc;strokeColor=#d6b656;rounded=1;" parent="1" vertex="1">
          <mxGeometry x="400" y="435" width="100" height="70" as="geometry" />
        </mxCell>
      </root>
    </mxGraphModel>
  </diagram>
</mxfile>
